<svg version="1.1" id="Capa_1" xmlns="http://www.w3.org/2000/svg" xmlns:xlink="http://www.w3.org/1999/xlink" x="0px" y="0px" viewBox="0 0 512 512" style="enable-background:new 0 0 512 512;" xml:space="preserve">
<g>
	<g>
		<polygon style="fill:#756E78;" points="501.6,378.5 501.6,413.5 10.4,413.5 10.4,378.5 288.891,360.729 &#9;&#9;"/>
		<path style="fill:#F5F8F9;" d="M501.6,116.46V378.5H10.4V116.46h174.157c0,0,9.258,62.574,70.443,62.574&#10;&#9;&#9;&#9;s64.95-62.574,64.95-62.574H501.6z"/>
		<path style="fill:#655F66;" d="M501.6,378.5v35h-36.5c4.91-5.72,8.78-12.85,8.78-21.44V378.5l13.223-8.735L501.6,378.5z"/>
		<path style="fill:#E6EDF4;" d="M501.6,116.46V378.5h-27.72V144.96c0-14.31-4.89-22.28-9.91-28.5H501.6z"/>
		<path style="fill:#CEE0EA;" d="M355.329,468.735L326,472.46l0,0c-37.926-40.393-102.074-40.393-140,0l0,0l-29.626-3.169&#10;&#9;&#9;&#9;l29.888-55.791h139.477L355.329,468.735z"/>
		<path style="fill:#6499F9;" d="M65.043,330.087H7.5v-85.562h57.543c5.523,0,10,4.477,10,10v65.562&#10;&#9;&#9;&#9;C75.043,325.61,70.565,330.087,65.043,330.087z"/>
		<path style="fill:#6499F9;" d="M504.5,324.768l-30.62,5.319h-26.923c-5.523,0-10-4.477-10-10v-65.562c0-5.523,4.477-10,10-10&#10;&#9;&#9;&#9;h26.923l30.62,7.961V324.768z"/>
		<rect x="473.88" y="244.53" style="fill:#4A81F6;" width="30.62" height="85.56"/>
		<path style="fill:#E6EDF4;" d="M389.002,502.5l-20.872,2h-1l0,0l-246.132-0.004c-2.761,0-5-2.433-5-5.435v-26.126&#10;&#9;&#9;&#9;c0-3.002,2.239-5.435,5-5.435h252.408l15.596,2c2.761,0,5,2.433,5,5.435v22.13C394.002,500.067,391.763,502.5,389.002,502.5z"/>
		<path style="fill:#CEE0EA;" d="M396.002,472.935v26.13c0,3-2.24,5.435-5,5.435H367.13c5.807,0,6.275-5.61,6.275-8.197V467.5&#10;&#9;&#9;&#9;h17.596C393.762,467.5,396.002,469.935,396.002,472.935z"/>
		<g>
			<circle style="fill:#F5F8F9;" cx="254.799" cy="113.709" r="66.439"/>
			<g>
				<path style="fill:#756E78;" d="M349.15,92.846l-7.365-0.588c-1.34,0-2.533-0.884-2.885-2.177&#10;&#9;&#9;&#9;&#9;&#9;c-1.949-7.172-3.586-15.998-7.192-22.315c-0.664-1.163-0.446-2.63,0.501-3.577l7.38-7.38c2.342-2.342,2.342-6.138,0-8.48&#10;&#9;&#9;&#9;&#9;&#9;L318.66,27.4c-2.34-2.35-6.14-2.35-8.49,0l-7.337,7.337c-0.948,0.948-2.418,1.165-3.581,0.499&#10;&#9;&#9;&#9;&#9;&#9;c-6.31-3.615-13.117-6.465-20.289-8.423c-1.291-0.352-2.173-1.545-2.173-2.884V13.5c0-3.314-2.686-6-6-6h-29.6&#10;&#9;&#9;&#9;&#9;&#9;c-3.314,0-6,2.686-6,6v10.384c0,1.341-0.885,2.535-2.179,2.885c-7.172,1.942-13.979,4.776-20.295,8.382&#10;&#9;&#9;&#9;&#9;&#9;c-1.162,0.664-2.629,0.446-3.576-0.5l-7.38-7.372c-2.34-2.35-6.14-2.35-8.48,0l-20.93,20.93c-2.35,2.34-2.35,6.14,0,8.48&#10;&#9;&#9;&#9;&#9;&#9;l7.339,7.347c0.947,0.948,1.164,2.417,0.497,3.58c-3.615,6.309-6.465,13.109-8.423,20.28c-0.353,1.291-1.545,2.173-2.884,2.173&#10;&#9;&#9;&#9;&#9;&#9;h-10.43c-3.314,0-6,2.686-6,6v29.6c0,3.314,2.686,6,6,6h10.384c1.341,0,2.535,0.885,2.886,2.18&#10;&#9;&#9;&#9;&#9;&#9;c1.942,7.179,4.776,13.986,8.381,20.302c0.638,1.118,0.455,2.51-0.4,3.458c0,0,0.205,1.281,0.168,1.319l-3.729,5.969&#10;&#9;&#9;&#9;&#9;&#9;c-2.34,2.35-2.34,6.15,0,8.49l17.882,17.882c2.34,2.34,6.14,2.34,8.48,0l7.346-7.346c0.949-0.949,2.419-1.165,3.583-0.498&#10;&#9;&#9;&#9;&#9;&#9;c6.309,3.621,14.267,7.009,21.438,8.973c1.29,0.353,2.171,1.546,2.171,2.883v10.432c0,3.314,2.686,6,6,6l25.335,1.579&#10;&#9;&#9;&#9;&#9;&#9;c3.314,0,6-2.686,6-6v-10.386c0-1.34,0.884-2.534,2.177-2.885c7.179-1.949,16.406-5.924,22.715-9.529&#10;&#9;&#9;&#9;&#9;&#9;c1.163-0.665,2.631-0.447,3.578,0.5l7.379,7.379c2.34,2.35,6.14,2.35,8.49,0l18.371-18.628c2.342-2.342,2.342-6.138,0-8.48&#10;&#9;&#9;&#9;&#9;&#9;l-7.346-7.346c-0.949-0.949-1.165-2.419-0.498-3.583c3.621-6.309,6.628-14.436,8.592-21.607c0.353-1.29,1.546-2.171,2.883-2.171&#10;&#9;&#9;&#9;&#9;&#9;h10.432c3.314,0,6-2.686,6-6l-1.997-25.711C355.15,95.533,352.464,92.846,349.15,92.846z M255.91,164.04&#10;&#9;&#9;&#9;&#9;&#9;c-29.32,0-53.09-23.76-53.09-53.08c0-29.32,23.77-53.09,53.09-53.09c29.31,0,53.08,23.77,53.08,53.09&#10;&#9;&#9;&#9;&#9;&#9;C308.99,140.28,285.22,164.04,255.91,164.04z"/>
			</g>
			<g>
				<path style="fill:#655F66;" d="M359.37,96.24v29.61c0,3.31-2.69,6-6,6h-10.43c-1.34,0-2.53,0.88-2.88,2.17&#10;&#9;&#9;&#9;&#9;&#9;c-1.97,7.17-4.81,13.97-8.43,20.28c-0.67,1.16-0.45,2.64,0.49,3.58l7.35,7.35c2.34,2.34,2.34,6.14,0,8.48l-20.93,20.93&#10;&#9;&#9;&#9;&#9;&#9;c-2.35,2.35-6.15,2.35-8.49,0l-7.38-7.38c-0.95-0.95-2.41-1.16-3.58-0.5c-6.31,3.61-13.11,6.44-20.29,8.39&#10;&#9;&#9;&#9;&#9;&#9;c-1.3,0.35-2.18,1.54-2.18,2.88v10.39c0,3.31-2.69,6-6,6h-29.6c-3.31,0-6-2.69-6-6v-10.43c0-1.34-0.88-2.53-2.17-2.88&#10;&#9;&#9;&#9;&#9;&#9;c-7.17-1.97-13.97-4.81-20.28-8.43c-1.16-0.67-2.64-0.45-3.58,0.49l-7.35,7.35c-2.34,2.34-6.14,2.34-8.48,0l-20.94-20.93&#10;&#9;&#9;&#9;&#9;&#9;c-2.34-2.34-2.34-6.14,0-8.49l7.38-7.37c0.04-0.04,0.07-0.08,0.1-0.12c74.293,44.787,147.523-16.076,152.01-89.84&#10;&#9;&#9;&#9;&#9;&#9;c3.6,6.31,6.44,13.12,8.39,20.29c0.35,1.3,1.54,2.18,2.88,2.18h10.39C356.68,90.24,359.37,92.93,359.37,96.24z"/>
			</g>
		</g>
	</g>
	<g>
		<path style="fill:none;stroke:#000000;stroke-width:15;stroke-linecap:round;stroke-linejoin:round;stroke-miterlimit:10;" d="&#10;&#9;&#9;&#9;M319.35,504.5h69.33c2.76,0,5-2.24,5-5v-24.04c0-2.76-2.24-5-5-5H121.01c-2.77,0-5,2.24-5,5v24.04c0,2.76,2.23,5,5,5h163.34"/>
		<path style="fill:none;stroke:#000000;stroke-width:15;stroke-linecap:round;stroke-linejoin:round;stroke-miterlimit:10;" d="&#10;&#9;&#9;&#9;M42.36,114.46H17.5c-5.52,0-10,4.48-10,10v280c0,5.52,4.48,10,10,10h46.25"/>
		<path style="fill:none;stroke:#000000;stroke-width:15;stroke-linecap:round;stroke-linejoin:round;stroke-miterlimit:10;" d="&#10;&#9;&#9;&#9;M504.5,306.17v98.29c0,5.52-4.48,10-10,10H326H186H98.75"/>
		
			<line style="fill:none;stroke:#000000;stroke-width:15;stroke-linecap:round;stroke-linejoin:round;stroke-miterlimit:10;" x1="150.7" y1="114.46" x2="77.36" y2="114.46"/>
		<path style="fill:none;stroke:#000000;stroke-width:15;stroke-linecap:round;stroke-linejoin:round;stroke-miterlimit:10;" d="&#10;&#9;&#9;&#9;M362.59,114.46H494.5c5.52,0,10,4.48,10,10v146.71"/>
		
			<line style="fill:none;stroke:#000000;stroke-width:15;stroke-linecap:round;stroke-linejoin:round;stroke-miterlimit:10;" x1="355.329" y1="469.207" x2="326.813" y2="415.977"/>
		<path style="fill:none;stroke:#000000;stroke-width:15;stroke-linecap:round;stroke-linejoin:round;stroke-miterlimit:10;" d="&#10;&#9;&#9;&#9;M186.378,470.059c18.92-19.933,44.271-29.889,69.622-29.889c25.268,0,50.536,9.892,69.436,29.694"/>
		
			<line style="fill:none;stroke:#000000;stroke-width:15;stroke-linecap:round;stroke-linejoin:round;stroke-miterlimit:10;" x1="185.187" y1="415.977" x2="156.374" y2="469.763"/>
		
			<line style="fill:none;stroke:#000000;stroke-width:15;stroke-linecap:round;stroke-linejoin:round;stroke-miterlimit:10;" x1="9.681" y1="378.501" x2="502.532" y2="378.501"/>
		<path style="fill:none;stroke:#000000;stroke-width:15;stroke-linecap:round;stroke-linejoin:round;stroke-miterlimit:10;" d="&#10;&#9;&#9;&#9;M359.366,125.846V96.245c0-3.314-2.686-6-6-6h-12.708c-2.125-8.724-5.557-16.937-10.085-24.413l9.017-9.018&#10;&#9;&#9;&#9;c2.343-2.343,2.343-6.142,0-8.485l-20.931-20.931c-2.343-2.343-6.142-2.343-8.485,0l-8.987,8.987&#10;&#9;&#9;&#9;c-7.467-4.544-15.673-7.992-24.393-10.135V13.5c0-3.314-2.686-6-6-6h-29.601c-3.314,0-6,2.686-6,6v12.708&#10;&#9;&#9;&#9;c-8.724,2.125-16.937,5.557-24.413,10.085l-9.017-9.017c-2.343-2.343-6.142-2.343-8.485,0l-20.931,20.931&#10;&#9;&#9;&#9;c-2.343,2.343-2.343,6.142,0,8.485l8.987,8.987c-4.544,7.467-7.992,15.673-10.135,24.392h-12.75c-3.314,0-6,2.686-6,6v29.601&#10;&#9;&#9;&#9;c0,3.314,2.686,6,6,6h12.708c2.125,8.724,5.557,16.937,10.085,24.413l-9.017,9.018c-2.343,2.343-2.343,6.142,0,8.485&#10;&#9;&#9;&#9;l20.931,20.931c2.343,2.343,6.142,2.343,8.485,0l8.987-8.987c7.467,4.544,15.673,7.992,24.393,10.135v12.75c0,3.314,2.686,6,6,6&#10;&#9;&#9;&#9;h29.601c3.314,0,6-2.686,6-6V195.71c8.724-2.125,16.937-5.557,24.413-10.085l9.017,9.017c2.343,2.343,6.142,2.343,8.485,0&#10;&#9;&#9;&#9;l20.931-20.931c2.343-2.343,2.343-6.142,0-8.485l-8.987-8.987c4.544-7.467,7.992-15.673,10.135-24.392h12.75&#10;&#9;&#9;&#9;C356.68,131.846,359.366,129.16,359.366,125.846z"/>
		
			<circle style="fill:none;stroke:#000000;stroke-width:15;stroke-linecap:round;stroke-linejoin:round;stroke-miterlimit:10;" cx="255.907" cy="110.959" r="53.084"/>
		<path style="fill:none;stroke:#000000;stroke-width:15;stroke-linecap:round;stroke-linejoin:round;stroke-miterlimit:10;" d="&#10;&#9;&#9;&#9;M328.331,330.09l31.941-83.867c0.389-1.022,1.37-1.698,2.464-1.698l0,0c1.097,0,2.079,0.679,2.466,1.705l31.648,83.859"/>
		
			<line style="fill:none;stroke:#000000;stroke-width:15;stroke-linecap:round;stroke-linejoin:round;stroke-miterlimit:10;" x1="338.494" y1="308.78" x2="386.851" y2="308.78"/>
		
			<polyline style="fill:none;stroke:#000000;stroke-width:15;stroke-linecap:round;stroke-linejoin:round;stroke-miterlimit:10;" points="&#10;&#9;&#9;&#9;237.841,244.525 201.788,244.525 201.788,330.09 237.841,330.09 &#9;&#9;"/>
		
			<line style="fill:none;stroke:#000000;stroke-width:15;stroke-linecap:round;stroke-linejoin:round;stroke-miterlimit:10;" x1="233.809" y1="287.307" x2="201.993" y2="287.307"/>
		<path style="fill:none;stroke:#000000;stroke-width:15;stroke-linecap:round;stroke-linejoin:round;stroke-miterlimit:10;" d="&#10;&#9;&#9;&#9;M159.72,264.225c0,10.88-8.82,19.734-19.7,19.734H115.15v-39.434h24.869C150.899,244.525,159.72,253.345,159.72,264.225z"/>
		<path style="fill:none;stroke:#000000;stroke-width:15;stroke-linecap:round;stroke-linejoin:round;stroke-miterlimit:10;" d="&#10;&#9;&#9;&#9;M167.408,306.994c0,12.727-10.318,23.096-23.045,23.096H115.15v-46.131h29.212C157.09,283.959,167.408,294.266,167.408,306.994z"/>
		
			<line style="fill:none;stroke:#000000;stroke-width:15;stroke-linecap:round;stroke-linejoin:round;stroke-miterlimit:10;" x1="268.429" y1="244.528" x2="315.68" y2="244.528"/>
		
			<line style="fill:none;stroke:#000000;stroke-width:15;stroke-linecap:round;stroke-linejoin:round;stroke-miterlimit:10;" x1="291.959" y1="247.26" x2="291.959" y2="330.087"/>
		<path style="fill:none;stroke:#000000;stroke-width:15;stroke-linecap:round;stroke-linejoin:round;stroke-miterlimit:10;" d="&#10;&#9;&#9;&#9;M11.085,244.525h53.957c5.523,0,10,4.477,10,10v65.562c0,5.523-4.477,10-10,10H9.681"/>
		<path style="fill:none;stroke:#000000;stroke-width:15;stroke-linecap:round;stroke-linejoin:round;stroke-miterlimit:10;" d="&#10;&#9;&#9;&#9;M502.532,330.087h-55.574c-5.523,0-10-4.477-10-10v-65.562c0-5.523,4.477-10,10-10h55.234"/>
	</g>
</g>
<g>
</g>
<g>
</g>
<g>
</g>
<g>
</g>
<g>
</g>
<g>
</g>
<g>
</g>
<g>
</g>
<g>
</g>
<g>
</g>
<g>
</g>
<g>
</g>
<g>
</g>
<g>
</g>
<g>
</g>
</svg>