<svg id="Layer_1" enable-background="new 0 0 501.213 501.213" height="512" viewBox="0 0 501.213 501.213" width="512" xmlns="http://www.w3.org/2000/svg"><g><path d="m262.5 120h30v30h-30z" fill="#2ec7e6"/><path d="m262.5 60h30v30h-30z" fill="#2ec7e6"/><g fill="#9ef"><path d="m22.5 120h30v30h-30z"/><path d="m22.5 180h30v30h-30z"/><path d="m22.5 240h30v30h-30z"/><path d="m82.5 240h30v30h-30z"/><path d="m22.5 60h30v30h-30z"/></g><path d="m202.5 0h30v30h-30z" fill="#2ec7e6"/><path d="m82.5 0h30v30h-30z" fill="#9ef"/><path d="m22.5 0h30v30h-30z" fill="#9ef"/><path d="m262.5 0h30v30h-30z" fill="#2ec7e6"/><path d="m363.954 301.602 83.808-59.863-342.784-114.261 162.523 182.523 168.785 148.785 42.427-42.426z" fill="#fff5f5"/><path d="m219.239 470.262 59.863-83.808 114.758 114.759 42.426-42.427-331.308-331.308z" fill="#ece6f2"/><path d="m142.5 0v30h15l10-15-10-15z" fill="#9ef"/><path d="m157.5 0h15v30h-15z" fill="#2ec7e6"/></g></svg>