<svg xmlns="http://www.w3.org/2000/svg" version="1.1" xmlns:xlink="http://www.w3.org/1999/xlink" width="512" height="512" x="0" y="0" viewBox="0 0 24 24" style="enable-background:new 0 0 512 512" xml:space="preserve" class=""><g><path d="M2.25 14v-4a.75.75 0 0 1 1.5 0v4a.75.75 0 0 1-1.5 0ZM21 9.25a.76.76 0 0 0-.75.75v4a.75.75 0 0 0 1.5 0v-4a.76.76 0 0 0-.75-.75Zm-7 11h-4a.75.75 0 0 0 0 1.5h4a.75.75 0 0 0 0-1.5Zm-7 0H4a.25.25 0 0 1-.25-.25v-3a.75.75 0 0 0-1.5 0v3A1.76 1.76 0 0 0 4 21.75h3a.75.75 0 0 0 0-1.5Zm14-4a.76.76 0 0 0-.75.75v3a.25.25 0 0 1-.25.25h-3a.75.75 0 0 0 0 1.5h3A1.76 1.76 0 0 0 21.75 20v-3a.76.76 0 0 0-.75-.75Zm-14-14H4A1.76 1.76 0 0 0 2.25 4v3a.75.75 0 0 0 1.5 0V4A.25.25 0 0 1 4 3.75h3a.75.75 0 0 0 0-1.5Zm13 0h-3a.75.75 0 0 0 0 1.5h3a.25.25 0 0 1 .25.25v3a.75.75 0 0 0 1.5 0V4A1.76 1.76 0 0 0 20 2.25Zm-6 0h-4a.75.75 0 0 0 0 1.5h4a.75.75 0 0 0 0-1.5Z" fill="#000000" opacity="1" data-original="#000000" class=""></path></g></svg>